<svg id="Layer_1" version="1.1" viewBox="0 0 152 152" xml:space="preserve" xmlns="http://www.w3.org/2000/svg"><style>.st4{fill:#fff}.st5{opacity:.2}.st6{fill:#202020}</style><g id="XMLID_7_"><path d="M139.9 152h-128c-6.6 0-12-5.4-12-12V12c0-6.6 5.4-12 12-12h128c6.6 0 12 5.4 12 12v128c0 6.6-5.4 12-12 12z" id="XMLID_16_" fill="#3374ba"/><path d="M139.9 151h-128c-6.6 0-12-5.4-12-12v1c0 6.6 5.4 12 12 12h128c6.6 0 12-5.4 12-12v-1c0 6.6-5.4 12-12 12z" id="XMLID_14_" opacity=".2" fill="#2d3079"/><path d="M139.9 0h-128C5.3 0-.1 5.4-.1 12v1c0-6.6 5.4-12 12-12h128c6.6 0 12 5.4 12 12v-1c0-6.6-5.4-12-12-12z" id="XMLID_15_" opacity=".2" fill="#fff"/><path d="M139.9 152h-64V0h64c6.6 0 12 5.4 12 12v128c0 6.6-5.4 12-12 12z" id="XMLID_3_" opacity=".1" fill="#fff"/></g><path class="st4" d="M57.5 76.7v-14h7.8v-1.1c0-3.3-.1-6.6.1-9.9.4-5.3 2.6-9.8 7.4-12.5 2.3-1.3 4.7-2 7.3-2 4.7-.1 9.3 0 14 0v13.6h-8.8c-2.1 0-3.5 1.2-3.5 3.3-.1 2.9 0 5.8 0 8.7h12.6c-.5 4.7-1 9.3-1.4 14H81.9v39.6H65.3v-1.2-37.3c0-.9-.2-1.2-1.2-1.2-1.9.1-3.8 0-5.7 0h-.9z" id="XMLID_2_"/><g class="st5" id="XMLID_18_"><path class="st4" d="M81.9 62.6v-4.2 5.2h12.5c0-.3.1-.7.1-1H81.9z" id="XMLID_19_"/><path class="st4" d="M65.4 78.8v18.6c-.1-6.2 0-12.4 0-18.6z" id="XMLID_20_"/><path class="st4" d="M65.3 62.6v-.9 1h-7.8v1h7.8v-1.1z" id="XMLID_21_"/><path class="st4" d="M65.5 52.7c.4-5.3 2.6-9.8 7.4-12.5 2.3-1.3 4.7-2 7.3-2 4.7-.1 9.3 0 14 0v-1c-4.7 0-9.4-.1-14 0-2.6.1-5.1.7-7.3 2-4.8 2.8-7 7.2-7.4 12.5-.2 1.9-.2 3.7-.2 5.6 0-1.6.1-3.1.2-4.6z" id="XMLID_22_"/></g><g class="st5" id="XMLID_23_"><path class="st6" d="M65.3 61.6v-4.3 4.3z" id="XMLID_24_"/><path class="st6" d="M85.5 51.6h8.8v-1h-8.8c-2.1 0-3.5 1.2-3.5 3.3-.1 1.5-.1 3 0 4.5v-3.5c0-2.1 1.4-3.2 3.5-3.3z" id="XMLID_25_"/><path class="st6" d="M65.4 77.8c0-.9-.2-1.2-1.2-1.2-1.9.1-3.8 0-5.7 0h-1v1h1c1.9 0 3.8.1 5.7 0 .9 0 1.2.2 1.2 1.1v-.9z" id="XMLID_26_"/><path class="st6" d="M93.1 76.7H82v1h11.1c.5-4.7 1-9.3 1.4-14h-.1c-.4 4.3-.9 8.6-1.3 13z" id="XMLID_27_"/><path class="st6" d="M65.3 117.3h16.6v-1H65.3v1z" id="XMLID_28_"/><path class="st6" d="M65.3 115.1V97.4v17.7z" id="XMLID_29_"/></g></svg>