<svg id="Layer_1" version="1.1" viewBox="0 0 152 152" xml:space="preserve" xmlns="http://www.w3.org/2000/svg"><style>.st0{opacity:.2}.st0,.st4{fill:#fff}.st5{opacity:.2}.st7{fill:#202020}</style><g id="XMLID_93_"><path class="st0" d="M140 0H12C5.4 0 0 5.4 0 12v1C0 6.4 5.4 1 12 1h128c6.6 0 12 5.4 12 12v-1c0-6.6-5.4-12-12-12z" id="XMLID_98_"/><path d="M140 152H12c-6.6 0-12-5.4-12-12V12C0 5.4 5.4 0 12 0h128c6.6 0 12 5.4 12 12v128c0 6.6-5.4 12-12 12z" id="XMLID_97_" fill="#dd4b38"/><path d="M140 151H12c-6.6 0-12-5.4-12-12v1c0 6.6 5.4 12 12 12h128c6.6 0 12-5.4 12-12v-1c0 6.6-5.4 12-12 12z" id="XMLID_96_" opacity=".2" fill="#be3a26"/><path class="st0" d="M140 0H12C5.4 0 0 5.4 0 12v1C0 6.4 5.4 1 12 1h128c6.6 0 12 5.4 12 12v-1c0-6.6-5.4-12-12-12z" id="XMLID_95_"/><path d="M140 152H76V0h64c6.6 0 12 5.4 12 12v128c0 6.6-5.4 12-12 12z" id="XMLID_94_" opacity=".1" fill="#fff"/></g><g id="XMLID_2_"><path class="st4" d="M113.6 73.5c0 1.4-.5 2-2 2h-11v10.9c0 1.5-.5 2.1-2.1 2.1H96c-1.2 0-1.8-.6-1.8-1.8V76.6v-1H83.3c-1.5 0-2.1-.5-2.1-2.1v-2.3c0-1.5.5-2.1 2-2.1h10.9v-1-10c0-1.5.5-2 2-2h2.1c1.8 0 2.3.5 2.3 2.2V69h10.9c1.5 0 2.1.5 2.1 2.1.1.9.1 1.6.1 2.4zM82.2 44.7c-1.1.8-2.3 1.6-3.4 2.5-.8.6-1.5 1-2.5.8h-.6c.1.2.1.3.2.3 4 5.5 4.9 14.6-2.7 20.9-.9.7-1.8 1.4-2.6 2.2-1.2 1.1-1.8 2.6-.2 4.2 1.1 1.1 2.3 2.2 3.5 3.2.6.6 1.3 1 2 1.5 7 5.3 7.3 15.6 3.1 21-2.5 3.3-5.8 5.5-9.7 6.6-7.7 2.3-15.3 1.7-22.7-1.5-1.5-.6-2.9-1.6-4.1-2.6-4-3.3-5-8-2.8-12.8 2.1-4.5 5.7-7.3 10.2-9.2 2.9-1.2 5.9-1.8 9-1.9H60c-1-2-1.3-4-.8-6-1.3-.2-2.6-.3-3.9-.6-7.8-1.8-12.8-8.5-12.3-16.5.2-3.6 1.9-6.6 4.4-9.2 3.9-4 8.8-6.1 14.4-6.2 6.6-.1 13.2 0 19.7 0 .9 0 1.5.2 1.8 1.1 0 1-.2 1.6-1.1 2.2zM51.6 88.4c-1.3 1-2.3 2.3-2.7 4-.7 3.2.6 5.8 3 7.8 2.7 2.3 6 2.9 9.5 2.8.6 0 1.2 0 1.8-.1 2.3-.2 4.6-.8 6.7-2 3.6-2.1 5.1-8.7.8-11.8-1.5-1.1-3-2.2-4.6-3.3-.2-.1-.3-.2-.5-.2-5.1-1.2-9.8-.4-14 2.8zm15.6-34.3c-1.1-2.5-2.8-4.6-5.4-5.8-3.3-1.6-6.4-.4-7.9 2.8-.7 1.5-1 3-.9 4.6.1 4.3 1.6 8 4.8 10.9 1.1 1 2.4 1.8 4 2 2.7.4 5-1 6.2-3.9 1.2-3.5.8-7.1-.8-10.6z" id="XMLID_88_"/><g class="st5" id="XMLID_23_"><path class="st4" d="M42.8 58c.2-3.6 1.9-6.6 4.4-9.2 3.9-4 8.8-6.1 14.4-6.2 6.6-.1 13.2 0 19.7 0 .9 0 1.5.2 1.8 1.1.1-.3.1-.6 0-1-.3-.9-1-1.1-1.8-1.1-6.6 0-13.2-.1-19.7 0-5.6.1-10.4 2.1-14.4 6.2-2.5 2.5-4.2 5.6-4.4 9.2v1z" id="XMLID_87_"/><path class="st4" d="M100.7 70.1h10.9c1.5 0 2.1.5 2.1 2v-1c0-1.5-.5-2.1-2.1-2.1h-10.9v1.1z" id="XMLID_31_"/><path class="st4" d="M76.3 49h-.6c.1.2.1.3.2.3 1.7 2.4 2.8 5.4 3 8.6 0-3.2-1-6.4-2.6-8.9z" id="XMLID_30_"/><path class="st4" d="M57.7 67.7c1.1 1 2.4 1.8 4 2 2.7.4 5-1 6.2-3.9.6-1.6.9-3.3.8-4.9-.1 1.3-.3 2.6-.8 3.9-1.1 2.9-3.4 4.3-6.2 3.9-1.5-.2-2.8-1-4-2-3.1-2.9-4.6-6.5-4.8-10.6v.7c.1 4.2 1.6 8 4.8 10.9z" id="XMLID_29_"/><path class="st4" d="M81.4 71.2v1c0-1.5.5-2.1 2-2.1h10.9v-1-10c0-1.5.5-2 2-2h2.1c1.8 0 2.3.5 2.3 2.2v-1c0-1.7-.5-2.2-2.3-2.2h-2.1c-1.5 0-2 .5-2 2v11H83.4c-1.5 0-2 .6-2 2.1z" id="XMLID_28_"/><path class="st4" d="M75.7 80.5c-.7-.5-1.4-1-2-1.5-1.2-1.1-2.4-2.1-3.5-3.2-.5-.5-.8-1-.9-1.5-.2.8 0 1.6.9 2.5 1.1 1.1 2.3 2.2 3.5 3.2.6.6 1.3 1 2 1.5 3.9 2.9 5.7 7.4 5.8 11.7.2-4.6-1.6-9.6-5.8-12.7z" id="XMLID_27_"/><path class="st4" d="M58.8 75c-.1.5-.1 1 0 1.5 0-.5.1-.9.2-1.4-.1 0-.1 0-.2-.1z" id="XMLID_26_"/><path class="st4" d="M39.5 92.2c2.1-4.5 5.7-7.3 10.2-9.2 2.9-1.2 5.9-1.8 9-1.9h1.1c-.2-.3-.3-.7-.5-1h-.7c-3.1.1-6.1.7-9 1.9-4.5 1.9-8.1 4.7-10.2 9.2-.8 1.8-1.2 3.6-1.1 5.3.2-1.4.5-2.9 1.2-4.3z" id="XMLID_25_"/><path class="st4" d="M51.9 101.2c2.7 2.3 6 2.9 9.5 2.8.6 0 1.2 0 1.8-.1 2.3-.2 4.6-.8 6.7-2 2.2-1.3 3.6-4.2 3.4-7-.2 2.5-1.5 4.9-3.4 6-2.1 1.2-4.3 1.7-6.7 2-.6.1-1.2.1-1.8.1-3.5.1-6.7-.5-9.5-2.8-1.9-1.5-3-3.4-3.2-5.6-.1 2.7 1.1 4.9 3.2 6.6z" id="XMLID_24_"/></g><path d="M47.1 48.8c3.9-4 8.8-6.1 14.4-6.2 6.6-.1 13.2 0 19.7 0 .9 0 1.5.2 1.8 1.1.1-.3.1-.6 0-1-.2-.6-.7-.9-1.2-1.1H81.2c-6.6 0-13.2-.1-19.7 0-5.6.1-10.4 2.1-14.4 6.2-2.5 2.5-4.2 5.6-4.4 9.2v1c.3-3.7 1.9-6.7 4.4-9.2z" id="XMLID_22_" opacity=".2" fill="#202020"/><g class="st5" id="XMLID_3_"><path class="st7" d="M67.2 54.1c-1.1-2.5-2.8-4.6-5.4-5.8-3.3-1.6-6.4-.4-7.9 2.8-.7 1.5-1 3-.9 4.6v.3c.1-1.4.3-2.7.9-4 1.5-3.3 4.7-4.4 7.9-2.8 2.6 1.2 4.2 3.3 5.4 5.8.9 1.9 1.4 3.9 1.5 5.8.1-2.2-.5-4.5-1.5-6.7z" id="XMLID_21_"/><path class="st7" d="M70.7 89.1c-1.5-1.1-3-2.2-4.6-3.3-.2-.1-.3-.2-.5-.2-5.1-1.2-9.8-.5-14 2.8-1.3 1-2.3 2.3-2.7 4-.2.8-.2 1.5-.2 2.1 0-.4.1-.8.2-1.1.4-1.7 1.4-3 2.7-4 4.2-3.3 8.9-4 14-2.8.2 0 .4.1.5.2 1.5 1.1 3 2.2 4.6 3.3 1.7 1.2 2.5 3 2.6 4.8.1-2.1-.6-4.3-2.6-5.8z" id="XMLID_20_"/><path class="st7" d="M73.1 69.2c-.9.7-1.8 1.4-2.6 2.2-.8.8-1.3 1.7-1.1 2.7.2-.6.6-1.2 1.1-1.7.8-.8 1.7-1.5 2.6-2.2 4.3-3.6 5.9-8 5.7-12.3-.1 4-1.7 8.1-5.7 11.3z" id="XMLID_19_"/><path class="st7" d="M59.4 80.1h.5c-.6-1.2-1-2.4-1-3.6-.2 1.2 0 2.4.5 3.6z" id="XMLID_18_"/><path class="st7" d="M83.1 43.7c-.1.3-.4.6-.9 1-1.1.8-2.3 1.6-3.4 2.5-.8.6-1.5 1-2.5.8h-.6c.1.2.1.3.2.3.1.2.3.4.4.6h.1c1 .1 1.8-.2 2.5-.8 1.1-.9 2.2-1.6 3.4-2.5.8-.5 1-1.1.8-1.9z" id="XMLID_17_"/><path class="st7" d="M55.1 74.4c1.2.3 2.5.4 3.7.6 0-.3.1-.6.2-1-1.3-.2-2.6-.3-3.9-.6-7.2-1.7-12.1-7.6-12.3-14.8-.2 7.7 4.7 14 12.3 15.8z" id="XMLID_16_"/><path class="st7" d="M94.4 75.5H83.5c-1.5 0-2.1-.5-2.1-2.1v1c0 1.5.5 2.1 2.1 2.1h10.9v-1z" id="XMLID_15_"/><path class="st7" d="M113.6 73.5c0 1.4-.5 2-2 2h-11v10.9c0 1.5-.5 2.1-2.1 2.1H96c-1.2 0-1.8-.6-1.8-1.8V76.6v11.1c0 1.2.6 1.8 1.8 1.8h2.5c1.5 0 2.1-.5 2.1-2.1v-9.9-1h11c1.4 0 2-.6 2-2v-2.3 1.3z" id="XMLID_14_"/><path class="st7" d="M78.9 101.4c-2.5 3.3-5.8 5.5-9.7 6.6-7.7 2.3-15.3 1.7-22.7-1.5-1.5-.6-2.9-1.6-4.1-2.6-2.5-2.1-3.8-4.6-3.9-7.4-.2 3.2 1.2 6.1 3.9 8.4 1.2 1 2.7 2 4.1 2.6 7.4 3.2 15 3.8 22.7 1.5 3.9-1.1 7.2-3.3 9.7-6.6 1.9-2.4 2.8-5.8 2.7-9.3-.1 3.2-1 6.2-2.7 8.3z" id="XMLID_7_"/></g></g></svg>