<svg id="Layer_1" version="1.1" viewBox="0 0 152 152" xml:space="preserve" xmlns="http://www.w3.org/2000/svg"><style>.st4{fill:#fff}.st5{opacity:.2}.st7{fill:#202020}</style><g id="XMLID_23_"><path d="M140 152H12c-6.6 0-12-5.4-12-12V12C0 5.4 5.4 0 12 0h128c6.6 0 12 5.4 12 12v128c0 6.6-5.4 12-12 12z" id="XMLID_28_" fill="#9b51a0"/><path d="M140 151H12c-6.6 0-12-5.4-12-12v1c0 6.6 5.4 12 12 12h128c6.6 0 12-5.4 12-12v-1c0 6.6-5.4 12-12 12z" id="XMLID_27_" opacity=".2" fill="#2d3079"/><path d="M140 0H12C5.4 0 0 5.4 0 12v1C0 6.4 5.4 1 12 1h128c6.6 0 12 5.4 12 12v-1c0-6.6-5.4-12-12-12z" id="XMLID_26_" opacity=".2" fill="#fff"/><path d="M140 152H76V0h64c6.6 0 12 5.4 12 12v128c0 6.6-5.4 12-12 12z" id="XMLID_25_" opacity=".1" fill="#fff"/></g><g id="XMLID_17_"><path class="st4" d="M75.8 43.6c10.6 0 11.8 0 16 .2 3.9.2 5.9.8 7.3 1.4 1.8.7 3.2 1.6 4.5 3 1.4 1.4 2.2 2.7 3 4.5.5 1.4 1.2 3.5 1.4 7.3.2 4.2.2 5.4.2 16s0 11.8-.2 16c-.2 3.9-.8 5.9-1.4 7.3-.7 1.8-1.6 3.2-3 4.5-1.4 1.4-2.7 2.2-4.5 3-1.4.5-3.5 1.2-7.3 1.4-4.2.2-5.4.2-16 .2s-11.8 0-16-.2c-3.9-.2-5.9-.8-7.3-1.4-1.8-.7-3.2-1.6-4.5-3-1.4-1.4-2.2-2.7-3-4.5-.5-1.4-1.2-3.5-1.4-7.3-.2-4.2-.2-5.4-.2-16s0-11.8.2-16c.2-3.9.8-5.9 1.4-7.3.7-1.8 1.6-3.2 3-4.5 1.4-1.4 2.7-2.2 4.5-3 1.4-.5 3.5-1.2 7.3-1.4 4.2-.2 5.4-.2 16-.2m0-7.1c-10.7 0-12.1 0-16.3.2-4.2.2-7.1.9-9.6 1.8-2.6 1-4.8 2.4-7 4.6-2.2 2.2-3.5 4.4-4.6 7-1 2.5-1.6 5.4-1.8 9.6-.2 4.2-.2 5.6-.2 16.3 0 10.7 0 12.1.2 16.3.2 4.2.9 7.1 1.8 9.6 1 2.6 2.4 4.8 4.6 7 2.2 2.2 4.4 3.5 7 4.6 2.5 1 5.4 1.6 9.6 1.8 4.2.2 5.6.2 16.3.2 10.7 0 12.1 0 16.3-.2 4.2-.2 7.1-.9 9.6-1.8 2.6-1 4.8-2.4 7-4.6 2.2-2.2 3.5-4.4 4.6-7 1-2.5 1.6-5.4 1.8-9.6.2-4.2.2-5.6.2-16.3s0-12.1-.2-16.3c-.2-4.2-.9-7.1-1.8-9.6-1-2.6-2.4-4.8-4.6-7-2.2-2.2-4.4-3.5-7-4.6-2.5-1-5.4-1.6-9.6-1.8-4.3-.2-5.6-.2-16.3-.2z" id="XMLID_21_"/><path class="st4" d="M75.8 55.7c-11.2 0-20.3 9.1-20.3 20.3s9.1 20.3 20.3 20.3S96.1 87.2 96.1 76 87 55.7 75.8 55.7zm0 33.5c-7.3 0-13.2-5.9-13.2-13.2s5.9-13.2 13.2-13.2C83.1 62.8 89 68.7 89 76s-6 13.2-13.2 13.2z" id="XMLID_19_"/><circle class="st4" cx="96.9" cy="54.9" id="XMLID_18_" r="4.7"/></g><g class="st5" id="XMLID_14_"><path class="st4" d="M36.5 60.7c.2-4.2.9-7.1 1.8-9.6 1-2.6 2.4-4.8 4.6-7 2.2-2.2 4.4-3.5 7-4.6 2.5-1 5.4-1.6 9.6-1.8 4.2-.2 5.6-.2 16.3-.2 10.7 0 12.1 0 16.3.2 4.2.2 7.1.9 9.6 1.8 2.6 1 4.8 2.4 7 4.6 2.2 2.2 3.5 4.4 4.6 7 1 2.5 1.6 5.4 1.8 9.6.2 4.1.2 5.5.2 15.8V76c0-10.7 0-12.1-.2-16.3-.2-4.2-.9-7.1-1.8-9.6-1-2.6-2.4-4.8-4.6-7-2.2-2.2-4.4-3.5-7-4.6-2.5-1-5.4-1.6-9.6-1.8-4.2-.2-5.6-.2-16.3-.2-10.7 0-12.1 0-16.3.2-4.2.2-7.1.9-9.6 1.8-2.6 1-4.8 2.4-7 4.6-2.2 2.2-3.5 4.4-4.6 7-1 2.5-1.6 5.4-1.8 9.6-.2 4.2-.2 5.6-.2 16.3v.5c-.1-10.3 0-11.7.2-15.8z" id="XMLID_16_"/><path class="st4" d="M43.6 93c.2 3.9.8 5.9 1.4 7.3.7 1.8 1.6 3.2 3 4.5s2.7 2.2 4.5 3c1.4.5 3.5 1.2 7.3 1.4 4.2.2 5.4.2 16 .2s11.8 0 16-.2c3.9-.2 5.9-.8 7.3-1.4 1.8-.7 3.2-1.6 4.5-3 1.4-1.4 2.2-2.7 3-4.5.5-1.4 1.2-3.5 1.4-7.3.2-4.2.2-5.4.2-16v-.5c0 10.1 0 11.4-.2 15.5-.2 3.9-.8 5.9-1.4 7.3-.7 1.8-1.6 3.2-3 4.5-1.4 1.4-2.7 2.2-4.5 3-1.4.5-3.5 1.2-7.3 1.4-4.2.2-5.4.2-16 .2s-11.8 0-16-.2c-3.9-.2-5.9-.8-7.3-1.4-1.8-.7-3.2-1.6-4.5-3s-2.2-2.7-3-4.5c-.5-1.4-1.2-3.5-1.4-7.3-.2-4.1-.2-5.4-.2-15.5v.5c-.1 10.5 0 11.8.2 16z" id="XMLID_15_"/></g><path d="M115.3 73.7v-1.6-.2-1.2-.2-1.1-.1-1c0-4-.1-5.6-.2-8.4-.2-4.2-.9-7.1-1.8-9.6-1-2.6-2.4-4.8-4.6-7-2.2-2.2-4.4-3.5-7-4.6-2.5-1-5.4-1.6-9.6-1.8-4.2-.2-5.6-.2-16.3-.2-10.7 0-12.1 0-16.3.2-4.2.2-7.1.9-9.6 1.8-2.6 1-4.8 2.4-7 4.6-2.2 2.2-3.5 4.4-4.6 7-1 2.5-1.6 5.4-1.8 9.6-.1 2.1-.2 3.5-.2 5.6v10.9c0-10.3 0-11.7.2-15.8.2-4.2.9-7.1 1.8-9.6 1-2.6 2.4-4.8 4.6-7 2.2-2.2 4.4-3.5 7-4.6 2.5-1 5.4-1.6 9.6-1.8 4.2-.2 5.6-.2 16.3-.2 10.7 0 12.1 0 16.3.2 4.2.2 7.1.9 9.6 1.8 2.6 1 4.8 2.4 7 4.6 2.2 2.2 3.5 4.4 4.6 7 1 2.5 1.6 5.4 1.8 9.6.2 4.1.2 5.5.2 15.8v-.5-.6-1.6z" id="XMLID_24_" opacity=".2" fill="#202020"/><g class="st5" id="XMLID_2_"><path class="st7" d="M107.9 60c-.2-3.9-.8-5.9-1.4-7.3-.7-1.8-1.6-3.2-3-4.5-1.4-1.4-2.7-2.2-4.5-3-1.4-.5-3.5-1.2-7.3-1.4-4.2-.2-5.4-.2-16-.2s-11.8 0-16 .2c-3.9.2-5.9.8-7.3 1.4-1.8.7-3.2 1.6-4.5 3-1.4 1.4-2.2 2.7-3 4.5-.5 1.4-1.2 3.5-1.4 7.3-.2 4.2-.2 5.4-.2 16v.5c0-10.1 0-11.4.2-15.5.2-3.9.8-5.9 1.4-7.3.7-1.8 1.6-3.2 3-4.5 1.4-1.4 2.7-2.2 4.5-3 1.4-.5 3.5-1.2 7.3-1.4 4.2-.2 5.4-.2 16-.2s11.8 0 16 .2c3.9.2 5.9.8 7.3 1.4 1.8.7 3.2 1.6 4.5 3 1.4 1.4 2.2 2.7 3 4.5.5 1.4 1.2 3.5 1.4 7.3.2 4.1.2 5.4.2 15.5V76c.1-10.6 0-11.8-.2-16z" id="XMLID_7_"/><path class="st7" d="M115.1 92.3c-.2 4.2-.9 7.1-1.8 9.6-1 2.6-2.4 4.8-4.6 7-2.2 2.2-4.4 3.5-7 4.6-2.5 1-5.4 1.6-9.6 1.8-4.2.2-5.6.2-16.3.2-10.7 0-12.1 0-16.3-.2-4.2-.2-7.1-.9-9.6-1.8-2.6-1-4.8-2.4-7-4.6-2.2-2.2-3.5-4.4-4.6-7-1-2.5-1.6-5.4-1.8-9.6-.2-4.1-.2-5.5-.2-15.8v.5c0 10.7 0 12.1.2 16.3.2 4.2.9 7.1 1.8 9.6 1 2.6 2.4 4.8 4.6 7 2.2 2.2 4.4 3.5 7 4.6 2.5 1 5.4 1.6 9.6 1.8 4.2.2 5.6.2 16.3.2 10.7 0 12.1 0 16.3-.2 4.2-.2 7.1-.9 9.6-1.8 2.6-1 4.8-2.4 7-4.6 2.2-2.2 3.5-4.4 4.6-7 1-2.5 1.6-5.4 1.8-9.6.2-4.2.2-5.6.2-16.3v-.5c0 10.3-.1 11.6-.2 15.8z" id="XMLID_3_"/></g></svg>