<svg id="Layer_1" version="1.1" viewBox="0 0 152 152" xml:space="preserve" xmlns="http://www.w3.org/2000/svg"><style>.st3{fill:#fff}.st4{opacity:.2}.st5{fill:#202020}</style><g id="XMLID_542_"><path d="M138.6 150.6H12c-6.6 0-12-5.4-12-12V12C0 5.4 5.4 0 12 0h126.6c6.6 0 12 5.4 12 12v126.6c0 6.6-5.4 12-12 12z" id="XMLID_541_" fill="#4875b4"/><path d="M138.7 0H11.9C5.4 0 0 5.3 0 11.9v1C0 6.3 5.4 1 11.9 1h126.8c6.5 0 11.9 5.3 11.9 11.9v-1c0-6.6-5.4-11.9-11.9-11.9z" id="XMLID_540_" opacity=".2" fill="#fff"/><path d="M138.7 150.6H11.9c-6.5 0-11.9-5.4-11.9-11.9v1c0 6.5 5.4 11.9 11.9 11.9h126.8c6.5 0 11.9-5.4 11.9-11.9v-1c0 6.5-5.4 11.9-11.9 11.9z" id="XMLID_539_" opacity=".2" fill="#2d3079"/><path class="st3" d="M36 75.3c0-10.9.1-21.8 0-32.8 0-4.2 3.1-6.4 6.4-6.4 21.9.1 43.7 0 65.6 0 4 0 6.3 2.3 6.3 6.3v65.8c0 3.9-2.3 6.2-6.3 6.2H42.1c-3.1 0-5.3-1.6-6-4.2-.2-.6-.2-1.3-.2-2 .1-10.9.1-21.9.1-32.9zm42.1 26.4v-1.2V81c0-2.2 1.1-3.8 2.8-5.1 3.5-2.5 8-.9 9.1 3.2.3 1.3.5 2.8.5 4.1V101.6h11.8v-.7V81c0-1.6-.2-3.3-.5-4.9-1-4.8-3.6-8.4-8.4-10-1.9-.6-3.9-.8-5.9-.6-3.4.2-6.2 1.6-8.3 4.2l-.9 1.2h-.2v-4.6H66.3v35.3c3.9.1 7.8.1 11.8.1zM47.9 66.4v35.3h11.7V66.4H47.9zm6-17.1c-2.9 0-5.3 1.4-6.2 3.7-1.6 3.9.8 7.9 5 8.4 3.5.4 6.3-1 7.4-3.7 1.6-4.2-1.4-8.4-6.2-8.4z" id="XMLID_534_"/><g class="st4" id="XMLID_526_"><path class="st3" d="M102.4 101.6H90.6v1h11.8v-.7-10.1V101.6z" id="XMLID_533_"/><path class="st3" d="M59.7 102.6v-1H48v1h11.7z" id="XMLID_532_"/><path class="st3" d="M52.7 62.4c3.5.4 6.3-1 7.4-3.7.4-1 .5-1.9.4-2.8-.1.6-.2 1.2-.4 1.9-1.1 2.7-3.9 4.1-7.4 3.7-3.1-.4-5.3-2.7-5.5-5.5-.3 3.1 2 6 5.5 6.4z" id="XMLID_531_"/><path class="st3" d="M108 36.1H42.4c-3.4 0-6.5 2.2-6.4 6.4v.8c0-4.1 3.1-6.3 6.4-6.3 21.9.1 43.7 0 65.6 0 4 0 6.3 2.3 6.3 6.3v-1c0-3.8-2.3-6.2-6.3-6.2z" id="XMLID_530_"/><path class="st3" d="M36 76.1V59.2v16.9z" id="XMLID_529_"/><path class="st3" d="M78.1 82c0-2.2 1.1-3.8 2.8-5.1 3.5-2.5 8-.9 9.1 3.2.3 1.3.5 2.8.5 4.1V83.3c0-1.4-.1-2.8-.5-4.1-1-4.2-5.6-5.8-9-3.3-1.7 1.2-2.8 2.9-2.8 5.1v20.5c-.1-6.5-.1-13-.1-19.5z" id="XMLID_528_"/><path class="st3" d="M78.1 102.6v-1H66.3v1h11.8z" id="XMLID_527_"/></g><g class="st4" id="XMLID_517_"><path class="st5" d="M78.1 66.4H66.3v1h11.8v-1z" id="XMLID_525_"/><path class="st5" d="M47.9 66.4v1h11.7v-1H47.9z" id="XMLID_524_"/><path class="st5" d="M53.9 49.3c-2.9 0-5.3 1.4-6.2 3.7-.4 1-.6 2-.5 3 .1-.6.2-1.3.5-2 1-2.3 3.3-3.7 6.2-3.7 3.7 0 6.3 2.5 6.6 5.5.3-3.5-2.5-6.5-6.6-6.5z" id="XMLID_523_"/><path class="st5" d="M78.1 101.7c0-.1 0-.1 0 0 0-.1 0-.1 0 0z" id="XMLID_522_"/><path class="st5" d="M108 114.5H42.1c-3.1 0-5.3-1.6-6-4.2-.2-.6-.2-1.3-.2-2V76.2v33.1c0 .7 0 1.3.2 2 .7 2.7 2.9 4.2 6 4.2H108c3.9 0 6.3-2.3 6.3-6.2v-1c0 3.8-2.3 6.2-6.3 6.2z" id="XMLID_521_"/><path class="st5" d="M90.5 101.6v-8.9 8.9z" id="XMLID_520_"/><path class="st5" d="M36 43.4V43.4z" id="XMLID_519_"/><path class="st5" d="M102.3 81.1c0-1.6-.2-3.3-.5-4.9-1-4.8-3.6-8.4-8.4-10-1.9-.6-3.9-.8-5.9-.6-3.4.2-6.2 1.6-8.3 4.2l-.9 1.2h-.2v1h.2l.9-1.2c2.1-2.6 4.9-4 8.3-4.2 2-.1 4 0 5.9.6 4.8 1.6 7.4 5.2 8.4 10 .3 1.6.5 3.3.5 4.9v9.7c.1-3.5.1-7.1 0-10.7z" id="XMLID_518_"/></g></g></svg>