<svg id="Layer_1" version="1.1" viewBox="0 0 152 152" xml:space="preserve" xmlns="http://www.w3.org/2000/svg"><style>.st0{opacity:.2}.st0,.st4{fill:#fff}.st5{opacity:.2}.st6{fill:#202020}</style><g id="XMLID_480_"><g id="XMLID_474_"><path class="st0" d="M140.2 0h-128C5.6 0 .2 5.4.2 12v1c0-6.6 5.4-12 12-12h128c6.6 0 12 5.4 12 12v-1c0-6.6-5.4-12-12-12z" id="XMLID_479_"/><path d="M140.2 152h-128c-6.6 0-12-5.4-12-12V12c0-6.6 5.4-12 12-12h128c6.6 0 12 5.4 12 12v128c0 6.6-5.4 12-12 12z" id="XMLID_478_" fill="#bd2026"/><path d="M140.2 151h-128c-6.6 0-12-5.4-12-12v1c0 6.6 5.4 12 12 12h128c6.6 0 12-5.4 12-12v-1c0 6.6-5.4 12-12 12z" id="XMLID_477_" opacity=".2" fill="#be3a26"/><path class="st0" d="M140.2 0h-128C5.6 0 .2 5.4.2 12v1c0-6.6 5.4-12 12-12h128c6.6 0 12 5.4 12 12v-1c0-6.6-5.4-12-12-12z" id="XMLID_476_"/><path d="M140.2 152h-64V0h64c6.6 0 12 5.4 12 12v128c0 6.6-5.4 12-12 12z" id="XMLID_475_" opacity=".1" fill="#fff"/></g><path class="st4" d="M69.8 90.4c-.6 2.2-1.1 4.3-1.6 6.4-1.1 4.1-1.8 8.3-4 12.1-1.7 2.9-3.6 5.7-5.5 8.5-.2.2-.6.5-.8.5-.2 0-.5-.5-.5-.8-.7-5-1.1-10-.2-15 .7-4 1.7-7.8 2.6-11.8 1.1-4.8 2.3-9.5 3.3-14.3.1-.4 0-.9-.1-1.3-1.4-4.1-1.7-8.2-.1-12.2 1.1-2.8 2.9-5.1 6-5.9 4.3-1.1 7.9 1.7 7.8 6.4-.1 2.3-.7 4.7-1.3 7-.8 3.2-1.9 6.3-2.7 9.6-1 4.5 2.1 8.4 6.7 8.6 3.8.1 6.7-1.6 9-4.5 2.6-3.2 4-6.9 4.9-10.9.8-3.9 1.3-7.8.7-11.8-1.1-7.4-5.5-12.1-12.7-13.8-7-1.7-13.7-.7-19.7 3.7-6.6 4.8-10 14.1-8 21.6.5 1.8 1.3 3.4 2.5 4.8.7.8.9 1.7.6 2.8-.3 1-.5 2.1-.8 3.2-.4 1.5-1.2 1.9-2.6 1.3-4-1.8-6.4-4.9-7.7-9-2.8-8.8-1.2-16.9 4.2-24.3 4.9-6.7 11.8-10.5 19.9-11.9 5.8-1 11.6-.9 17.2 1.1 9.2 3.3 15.4 9.5 17.8 19.2 1.1 4.3.7 8.6-.1 13-.9 5.2-2.7 10.1-5.9 14.3-4.5 5.9-10.3 9.1-17.7 9.1-4.5-.2-8.4-1.8-11.2-5.7z" id="XMLID_473_"/><g class="st5" id="XMLID_467_"><path class="st4" d="M59.8 91.3c1.1-4.8 2.3-9.5 3.3-14.3.1-.3.1-.6 0-1-1.1 4.8-2.2 9.5-3.3 14.3-.9 3.9-1.9 7.8-2.6 11.8-.4 2.2-.5 4.3-.5 6.5 0-1.8.2-3.7.5-5.5.7-4 1.7-7.9 2.6-11.8z" id="XMLID_472_"/><path class="st4" d="M88.4 83.6c-2.3 2.8-5.2 4.6-9 4.5-3.8-.1-6.6-2.9-6.9-6.4-.3 3.9 2.7 7.2 6.9 7.4 3.8.1 6.7-1.6 9-4.5 2.6-3.2 4-6.9 4.9-10.9.6-2.8 1-5.5 1-8.3-.1 2.5-.4 4.9-1 7.3-.8 4-2.3 7.7-4.9 10.9z" id="XMLID_471_"/><path class="st4" d="M49.8 52.1c4.9-6.7 11.8-10.5 19.9-11.9 5.8-1 11.6-.9 17.2 1.1 9.2 3.3 15.4 9.5 17.8 19.2.4 1.6.6 3.2.6 4.9 0-2-.2-3.9-.6-5.9-2.4-9.7-8.6-15.9-17.8-19.2-5.6-2-11.4-2.1-17.2-1.1-8.1 1.4-15 5.1-19.9 11.9-3.8 5.1-5.7 10.7-5.5 16.5 0-5.4 1.9-10.6 5.5-15.5z" id="XMLID_470_"/><path class="st4" d="M68.9 57.5c4.1-1.1 7.5 1.4 7.7 5.6v-.2c.1-4.7-3.4-7.5-7.8-6.4-3.1.8-4.9 3-6 5.9-.8 2.1-1.1 4.3-1.1 6.4 0-1.8.4-3.6 1.1-5.4 1.2-2.8 3.1-5.1 6.1-5.9z" id="XMLID_469_"/><path class="st4" d="M53.6 73.4c.5 1.8 1.3 3.4 2.5 4.8.4.4.6.8.7 1.3.1-.8-.1-1.6-.7-2.3-1.2-1.4-2-3-2.5-4.8-.3-1.3-.5-2.6-.5-3.9-.1 1.6.1 3.3.5 4.9z" id="XMLID_468_"/></g><g class="st5" id="XMLID_404_"><path class="st6" d="M63 74.6c-.7-1.9-1.1-3.9-1.2-5.8-.1 2.3.4 4.6 1.2 6.8 0 .1.1.3.1.4.1-.4.1-1-.1-1.4z" id="XMLID_466_"/><path class="st6" d="M75.4 70.9c.6-2.3 1.2-4.6 1.3-7v-.8c-.1 2.3-.7 4.5-1.2 6.8-.8 3.2-1.9 6.3-2.7 9.6-.2.8-.2 1.5-.2 2.2 0-.4.1-.8.2-1.2.7-3.2 1.8-6.4 2.6-9.6z" id="XMLID_465_"/><path class="st6" d="M56.8 79.4c0 .2 0 .3-.1.5-.3 1-.5 2.1-.8 3.2-.4 1.5-1.2 1.9-2.6 1.3-4-1.8-6.4-4.9-7.7-9-.8-2.6-1.3-5.2-1.3-7.7 0 2.8.4 5.7 1.3 8.7 1.3 4.1 3.7 7.2 7.7 9 1.4.6 2.2.2 2.6-1.3.3-1.1.5-2.1.8-3.2.1-.5.2-1 .1-1.5z" id="XMLID_464_"/><path class="st6" d="M104.7 72.5c-.9 5.2-2.7 10.1-5.9 14.3-4.5 5.9-10.3 9.1-17.7 9.1-4.5 0-8.4-1.6-11.2-5.5-.6 2.2-1.1 4.3-1.6 6.4-1.1 4.1-1.8 8.3-4 12.1-1.7 2.9-3.6 5.7-5.5 8.5-.2.2-.6.5-.8.5-.2 0-.5-.5-.5-.8-.4-2.8-.7-5.7-.7-8.5-.1 3.2.2 6.3.7 9.5 0 .3.3.7.5.8.2.1.7-.2.8-.5 1.9-2.8 3.8-5.6 5.5-8.5 2.2-3.7 3-7.9 4-12.1.5-2.1 1.1-4.2 1.6-6.4 2.8 3.9 6.7 5.5 11.2 5.5 7.4 0 13.3-3.2 17.7-9.1 3.2-4.2 5-9.1 5.9-14.3.5-2.7.8-5.4.7-8.1 0 2.3-.3 4.7-.7 7.1z" id="XMLID_463_"/><path class="st6" d="M94 60.9c-1.1-7.4-5.5-12.1-12.7-13.8-7-1.7-13.7-.7-19.7 3.7-5.5 4-8.7 11.1-8.5 17.7.2-6.3 3.4-12.9 8.5-16.7 6-4.4 12.7-5.3 19.7-3.7 7.2 1.7 11.6 6.3 12.7 13.8.2 1.2.3 2.3.3 3.5 0-1.5-.1-3-.3-4.5z" id="XMLID_437_"/></g></g></svg>