<svg id="Layer_1" version="1.1" viewBox="0 0 152 152" xml:space="preserve" xmlns="http://www.w3.org/2000/svg"><style>.st4{fill:#fff}.st5{opacity:.2}.st6{fill:#202020}</style><g id="XMLID_514_"><path d="M140 150.8H13.2c-6.6 0-12-5.4-12-12V12.1c0-6.6 5.4-12 12-12H140c6.6 0 12 5.4 12 12v126.8c0 6.5-5.4 11.9-12 11.9z" id="XMLID_513_" fill="#3fa0d9"/><path d="M140.1.1h-127C6.6.1 1.2 5.4 1.2 12v1c0-6.5 5.4-11.9 11.9-11.9h127c6.5 0 11.9 5.4 11.9 11.9v-1C152 5.4 146.6.1 140.1.1z" id="XMLID_510_" opacity=".2" fill="#fff"/><path d="M140.1 150.8h-127c-6.5 0-11.9-5.4-11.9-11.9v1c0 6.5 5.4 11.9 11.9 11.9h127c6.5 0 11.9-5.4 11.9-11.9v-1c0 6.6-5.4 11.9-11.9 11.9z" id="XMLID_509_" opacity=".2" fill="#2d3079"/><path d="M140 150.8H76.6V.1H140c6.6 0 12 5.4 12 12v126.8c0 6.5-5.4 11.9-12 11.9z" id="XMLID_506_" opacity=".1" fill="#fff"/><path class="st4" d="M39.2 75.8c.2-2.2.5-4.4.7-6.7 0-.4 0-.9-.2-1.3-6.5-12.2-.1-27.1 13.2-30.8 5.6-1.5 11-.8 16.1 2 .6.3 1.1.4 1.8.3C83 37.8 93.6 41.2 102.4 50c6 6 9.4 13.4 10.4 21.9.4 3.8.2 7.5-.5 11.3-.1.3 0 .8.1 1.1 5.6 12.6-1.4 26.7-14.8 29.8-4.8 1.1-9.4.5-13.8-1.6-.6-.3-1.1-.4-1.8-.3-14.7 2.4-29.8-4.7-37.4-17.5-3.5-5.8-5.3-12.1-5.4-18.9zm36.6-26c-1.8.2-3.6.2-5.4.5-3.6.5-7 1.6-10 3.9-6.4 4.8-6.8 15 .1 19.8 2 1.4 4.2 2.5 6.5 3.1 3.8 1.1 7.7 2 11.6 3 1.9.5 3.7 1 5.3 2.2 2.4 1.8 2.8 5.1.7 7.3-.8.9-2 1.6-3.1 2.2-2.6 1.2-5.4 1.3-8.3.9-3.1-.4-5.4-1.9-6.9-4.6-.5-.8-.8-1.7-1.3-2.6-.5-.9-1-1.7-1.6-2.5-1.4-1.6-3.9-2.1-6-1.2-2 .8-3.2 2.7-3 4.9.1 1.2.4 2.4.8 3.5 1.9 4.4 5.3 7.4 9.8 9.1 5.8 2.1 11.8 2.2 17.8 1.1 4-.7 7.6-2.4 10.6-5.3 5.6-5.5 6.4-17.4-3.5-22-1.9-.9-3.9-1.7-5.9-2.2-3.9-1.1-7.9-2-11.8-3-1.7-.5-3.4-1.1-4.8-2.4-1.4-1.4-1.6-3.4-.2-4.8.8-.8 1.9-1.5 2.9-2 1.8-.8 3.8-.8 5.8-.8 4 0 6.6 1.9 8.4 5.3.4.8.9 1.5 1.4 2.2 1.4 1.8 3.7 2.4 5.9 1.6 2.1-.8 3.6-2.9 3.3-5.2-.1-1.1-.4-2.3-.9-3.3-1.3-2.9-3.7-4.8-6.5-6.2-3.4-1.8-7.5-2.4-11.7-2.5z" id="XMLID_503_"/><g class="st5" id="XMLID_494_"><path class="st4" d="M91.9 67.2c-2.2.8-4.5.2-5.9-1.6-.5-.7-1-1.4-1.4-2.2-1.8-3.4-4.5-5.4-8.4-5.4-2 0-4 0-5.8.8-1.1.5-2.1 1.2-2.9 2-.8.8-1.1 1.8-.9 2.7.1-.6.4-1.2.9-1.7.8-.8 1.9-1.5 2.9-2 1.8-.8 3.8-.8 5.8-.8 4 0 6.6 1.9 8.4 5.3.4.8.9 1.5 1.4 2.2 1.4 1.8 3.7 2.4 5.9 1.6 2.1-.8 3.6-2.9 3.3-5.2v-.1c-.2 2-1.5 3.7-3.3 4.4z" id="XMLID_502_"/><path class="st4" d="M60.5 75c2 1.4 4.2 2.5 6.5 3.1 3.8 1.1 7.7 2 11.6 3 1.9.5 3.7 1 5.3 2.2 1.2.9 1.9 2.2 2 3.5.2-1.6-.5-3.3-2-4.5-1.6-1.2-3.4-1.8-5.3-2.2-3.9-1-7.8-1.9-11.6-3-2.3-.6-4.5-1.7-6.5-3.1-3.3-2.3-4.9-5.8-5-9.4-.2 3.9 1.4 7.9 5 10.4z" id="XMLID_501_"/><path class="st4" d="M39.9 69.4c-.2 2.1-.5 4.3-.7 6.4v.7c.2-2.1.5-4.2.7-6.3v-.8z" id="XMLID_498_"/><path class="st4" d="M52.9 38c5.6-1.5 11-.8 16.1 2 .6.3 1.1.4 1.8.3C83 38.8 93.6 42.2 102.4 51c6 6 9.4 13.4 10.4 21.9.1 1.2.2 2.3.2 3.5 0-1.5 0-3-.2-4.5-1-8.5-4.3-15.9-10.4-21.9-8.8-8.7-19.4-12.1-31.6-10.6-.7.1-1.2 0-1.8-.3-5.1-2.9-10.5-3.6-16.1-2-9.9 2.6-15.9 11.6-15.8 21 .3-9.1 6.3-17.5 15.8-20.1z" id="XMLID_497_"/><path class="st4" d="M112.4 84.3c0-.1-.1-.2-.1-.3v.2c-.1.3 0 .8.1 1.1 1.3 2.8 1.9 5.8 1.9 8.6.1-3.2-.5-6.4-1.9-9.6z" id="XMLID_496_"/><path class="st4" d="M54.5 87.8c.1 1.2.4 2.4.8 3.5 1.9 4.4 5.3 7.4 9.8 9.1 5.8 2.1 11.8 2.2 17.8 1.1 4-.7 7.6-2.4 10.6-5.3 2.7-2.6 4.2-6.6 4.1-10.7-.1 3.7-1.7 7.3-4.1 9.7-3 2.9-6.6 4.5-10.6 5.3-6 1.1-12 1-17.8-1.1-4.5-1.6-7.9-4.6-9.8-9.1-.5-1.1-.7-2.3-.8-3.5v1z" id="XMLID_495_"/></g><g class="st5" id="XMLID_482_"><path class="st6" d="M57.5 82.9c2.1-.9 4.6-.5 6 1.2.6.7 1.1 1.6 1.6 2.5.5.8.8 1.7 1.3 2.6 1.5 2.7 3.8 4.2 6.9 4.6 2.8.4 5.6.3 8.3-.9 1.1-.5 2.2-1.3 3.1-2.2 1-1.1 1.4-2.5 1.3-3.8-.1 1-.5 2-1.3 2.8-.8.9-2 1.6-3.1 2.2-2.6 1.2-5.4 1.3-8.3.9-3.1-.4-5.4-1.9-6.9-4.6-.5-.8-.8-1.7-1.3-2.6-.5-.9-1-1.7-1.6-2.5-1.4-1.6-3.9-2.1-6-1.2-2 .8-3.2 2.7-3 4.9v.1c.2-1.9 1.3-3.3 3-4z" id="XMLID_493_"/><path class="st6" d="M95.2 62c-.1-1.1-.4-2.3-.9-3.3-1.3-2.9-3.7-4.8-6.5-6.2-3.8-1.9-7.9-2.5-12.1-2.6-1.8.2-3.6.2-5.4.5-3.6.5-7 1.6-10 3.9-3.4 2.5-5 6.5-4.9 10.5.1-3.6 1.8-7.1 4.9-9.5 3-2.2 6.4-3.3 10-3.9 1.8-.3 3.6-.3 5.4-.5 4.2.1 8.3.7 12.1 2.6 2.8 1.4 5.1 3.3 6.5 6.2.5 1 .8 2.2.9 3.3.1-.4.1-.7 0-1z" id="XMLID_492_"/><path class="st6" d="M90.1 73.3c-1.9-.9-3.9-1.7-5.9-2.2-3.9-1.1-7.9-2-11.8-3-1.7-.5-3.4-1.1-4.8-2.4-.6-.6-1-1.3-1.1-2.1-.2 1.1.2 2.2 1.1 3.1 1.3 1.3 3 2 4.8 2.4 3.9 1 7.9 1.9 11.8 3 2 .6 4 1.4 5.9 2.2 5.2 2.4 7.4 6.8 7.6 11.3.1-4.8-2.1-9.7-7.6-12.3z" id="XMLID_489_"/><path class="st6" d="M97.6 114.1c-4.8 1.1-9.4.5-13.8-1.6-.6-.3-1.1-.4-1.8-.3-14.7 2.4-29.8-4.7-37.4-17.5-3.3-5.7-5.1-11.8-5.3-18.3v.3c.2 6.8 1.9 13.1 5.3 19 7.6 12.8 22.7 19.9 37.4 17.5.7-.1 1.2 0 1.8.3 4.4 2.1 9 2.7 13.8 1.6 10.4-2.4 16.9-11.4 16.7-21.2-.3 9.4-6.7 17.9-16.7 20.2z" id="XMLID_487_"/><path class="st6" d="M112.3 84c.5-2.5.7-5 .7-7.5 0 2.3-.3 4.5-.7 6.8-.1.2-.1.4 0 .7z" id="XMLID_485_"/><path class="st6" d="M39.9 69.4v-.3c0-.4 0-.9-.2-1.3-1.7-3.2-2.5-6.5-2.6-9.8-.1 3.6.7 7.3 2.6 10.8.1.2.2.4.2.6z" id="XMLID_483_"/></g></g></svg>