<svg id="Layer_1" version="1.1" viewBox="0 0 152 152" xml:space="preserve" xmlns="http://www.w3.org/2000/svg"><style>.st4{fill:#fff}.st5{opacity:.2}.st6{fill:#202020}</style><g id="XMLID_7_"><path d="M140 152H12c-6.6 0-12-5.4-12-12V12C0 5.4 5.4 0 12 0h128c6.6 0 12 5.4 12 12v128c0 6.6-5.4 12-12 12z" id="XMLID_2_" fill="#43c1e8"/><path d="M140 151H12c-6.6 0-12-5.4-12-12v1c0 6.6 5.4 12 12 12h128c6.6 0 12-5.4 12-12v-1c0 6.6-5.4 12-12 12z" id="XMLID_14_" opacity=".2" fill="#2d3079"/><path d="M140 0H12C5.4 0 0 5.4 0 12v1C0 6.4 5.4 1 12 1h128c6.6 0 12 5.4 12 12v-1c0-6.6-5.4-12-12-12z" id="XMLID_15_" opacity=".2" fill="#fff"/><path d="M140 152H76V0h64c6.6 0 12 5.4 12 12v128c0 6.6-5.4 12-12 12z" id="XMLID_3_" opacity=".1" fill="#fff"/></g><g id="XMLID_16_"><path class="st4" d="M56.8 97.5c-8.9-.8-15-5.3-18.3-13.7 3 .3 5.7.4 8.6-.3-9.7-3-14.9-9.4-15.6-19.6 2.9 1.4 5.6 2.3 8.7 2.4C31.5 59 29.5 50.4 34.3 40 45.1 52.6 58.5 59.5 75 60.6c-.1-.8-.2-1.5-.3-2.1-1-8.2 3.3-16.2 10.7-20 7.5-3.8 16.5-2.4 22.5 3.4.6.6 1.1.7 1.9.5 3.6-.9 6.9-2.1 10.2-3.9.3-.2.6-.3 1.2-.6-.7 2.4-1.7 4.4-3.2 6.1-1.5 1.7-3.1 3.1-4.7 4.6 3.5-.4 7-1.5 10.6-2.9-2.3 3.4-4.7 6.2-7.7 8.5-1.6 1.2-2 2.4-2 4.3 0 22.2-13.6 43.4-33.6 51.5-17.5 7.1-34.7 5.9-51.3-3.5l-.9-.6s-.1-.1-.1-.2c7.3.7 14.4-.4 21-3.5 2.6-1.3 5.1-2.8 7.5-4.7z" id="XMLID_31_"/><g class="st5" id="XMLID_24_"><path class="st4" d="M114.5 48.5l-1.2 1.2c3.2-.4 6.3-1.3 9.6-2.6.3-.4.6-.9 1-1.4-3.3 1.3-6.4 2.3-9.4 2.8z" id="XMLID_30_"/><path class="st4" d="M85.4 39.5c7.5-3.8 16.5-2.4 22.5 3.4.6.6 1.1.7 1.9.5 3.6-.9 6.9-2.1 10.2-3.9.2-.1.4-.2.7-.4.1-.4.3-.8.4-1.2-.5.3-.9.4-1.2.6-3.2 1.8-6.6 3-10.2 3.9-.8.2-1.3.1-1.9-.5-6-5.8-15-7.1-22.5-3.4-6.6 3.5-10.8 10.4-10.7 17.9.3-7.1 4.4-13.6 10.8-16.9z" id="XMLID_29_"/><path class="st4" d="M38.5 83.8c.1.4.3.7.4 1 2.8.3 5.4.4 8.2-.4l-1.8-.6c-2.3.4-4.5.3-6.8 0z" id="XMLID_28_"/><path class="st4" d="M34.3 41C45.1 53.6 58.5 60.5 75 61.6c0-.4-.1-.7-.1-1-16.4-1.2-29.8-8-40.6-20.6-1.8 4-2.6 7.7-2.5 11.1 0-3.2.9-6.5 2.5-10.1z" id="XMLID_27_"/><path class="st4" d="M29.2 106.5c.2.1.3.2.5.3 6.8.4 13.3-.7 19.5-3.6 2.7-1.2 5.2-2.7 7.6-4.6-.4 0-.8-.1-1.2-.1-2.1 1.5-4.2 2.7-6.4 3.8-6.7 3.1-13.7 4.2-21 3.5.1.1.1.2.1.2.3.1.6.3.9.5z" id="XMLID_26_"/><path class="st4" d="M40.2 67.3c-.4-.4-.8-.7-1.2-1.1-2.6-.3-5-1.1-7.5-2.3 0 .4.1.7.1 1 2.8 1.4 5.6 2.3 8.6 2.4z" id="XMLID_25_"/></g><g class="st5" id="XMLID_17_"><path class="st6" d="M38.9 84.9h-.4c3.2 8.1 8.9 12.5 17.2 13.6l1.2-.9c-8.7-.9-14.6-5-18-12.7z" id="XMLID_23_"/><path class="st6" d="M74.9 60.6h.1c-.1-.8-.2-1.5-.3-2.1-.1-.7-.1-1.4-.1-2.2 0 1 0 2.1.1 3.2.1.4.1.8.2 1.1z" id="XMLID_22_"/><path class="st6" d="M117.9 45c1.5-1.7 2.5-3.7 3.2-6.1-.2.1-.3.2-.4.2-.7 1.8-1.6 3.5-2.8 4.8-1.5 1.7-3.1 3.1-4.7 4.6.4 0 .8-.1 1.2-.2 1.2-.9 2.4-2 3.5-3.3z" id="XMLID_21_"/><path class="st6" d="M39 66.2c.4 0 .8.1 1.2.1-5.4-4.5-8.2-9.5-8.4-15.2-.1 5.6 2.3 10.6 7.2 15.1z" id="XMLID_20_"/><path class="st6" d="M116.1 54.2c-1.6 1.2-2 2.4-2 4.3 0 22.2-13.6 43.4-33.6 51.5-17.4 7.1-34.4 6-50.8-3.2-.5 0-1-.1-1.5-.1.1.1.1.2.1.2l.9.6c16.5 9.5 33.7 10.6 51.3 3.5 20-8.1 33.7-29.3 33.6-51.5 0-1.9.5-3.1 2-4.3 3-2.2 5.4-5.1 7.7-8.5-.3.1-.6.3-1 .4-1.9 2.8-4.1 5.2-6.7 7.1z" id="XMLID_19_"/><path class="st6" d="M45.3 83.9c.6-.1 1.2-.2 1.8-.4-9.4-2.9-14.5-9-15.5-18.6h-.1c.6 9.5 5.2 15.8 13.8 19z" id="XMLID_18_"/></g></g></svg>