<svg id="Layer_1" version="1.1" viewBox="0 0 152 152" xml:space="preserve" xmlns="http://www.w3.org/2000/svg"><style>.st0{opacity:.2}.st0,.st4{fill:#fff}.st5{opacity:.2}.st6{fill:#202020}</style><g id="XMLID_121_"><path class="st0" d="M140 0H12C5.4 0 0 5.4 0 12v1C0 6.4 5.4 1 12 1h128c6.6 0 12 5.4 12 12v-1c0-6.6-5.4-12-12-12z" id="XMLID_126_"/><path d="M140 152H12c-6.6 0-12-5.4-12-12V12C0 5.4 5.4 0 12 0h128c6.6 0 12 5.4 12 12v128c0 6.6-5.4 12-12 12z" id="XMLID_125_" fill="#b32024"/><path d="M140 151H12c-6.6 0-12-5.4-12-12v1c0 6.6 5.4 12 12 12h128c6.6 0 12-5.4 12-12v-1c0 6.6-5.4 12-12 12z" id="XMLID_124_" opacity=".2" fill="#be3a26"/><path class="st0" d="M140 0H12C5.4 0 0 5.4 0 12v1C0 6.4 5.4 1 12 1h128c6.6 0 12 5.4 12 12v-1c0-6.6-5.4-12-12-12z" id="XMLID_123_"/><path d="M140 152H76V0h64c6.6 0 12 5.4 12 12v128c0 6.6-5.4 12-12 12z" id="XMLID_122_" opacity=".1" fill="#fff"/></g><path class="st4" d="M114.9 105.8c-.8 6.9-7.3 11.7-14.6 11.7H59.5c-3.8 0-7.5.1-11.3-.1-6.8-.5-12.7-6.4-12.9-13.2-.2-4.7-.2-9.5 0-14.2.3-7.3 6.7-13.3 14-13.4 8.7-.1 17.4 0 26.1 0h25.2c7.6 0 13.8 4.9 14.6 12.4.5 5.5.4 11.2-.3 16.8zM60.4 81.7H46.5v4h4.7v23.4h4.5V108 89.3c0-1.2.1-2.3.1-3.5 1.1 0 2.3-.1 3.4-.1h1.1c.1-1.5.1-2.7.1-4zm13.4 7.2h-4v14.2c0 1.1-.4 1.8-1.2 2.2-.5.2-1.2.5-1.7.3-.3-.1-.5-1-.5-1.5V89.9v-1h-4V105.8c0 .5.1 1 .2 1.4.3 1.5 1.3 2.4 2.8 2.2 1.1-.2 2.1-.7 3.1-1.2.5-.2.9-.7 1.5-1.2v2.1h3.9c-.1-6.8-.1-13.5-.1-20.2zm14.8 8.6c0-1.8 0-3.6-.2-5.3-.4-3.3-3.6-4.6-6.3-2.7-.3.2-.6.5-1.1.9v-8.8h-4.1V109h4c0-.4.1-.8.1-1.3.3.2.4.4.6.6 1.4 1.1 3 1.4 4.7.8 1.6-.6 2-2 2.2-3.6v-1c.1-2.3.1-4.7.1-7zm9.9 6.1c0 .4 0 .8-.1 1.2-.2 1-.7 1.4-1.7 1.4-.9 0-1.6-.4-1.6-1.4-.1-1.7 0-3.5 0-5.3h7.5c0-2.3.1-4.5 0-6.7-.1-1.5-.8-2.7-2.1-3.5C98.3 88 96 88 93.8 89c-2.1 1-3.1 2.8-3.1 5.1v9.5c0 2 .6 3.8 2.3 5 1.9 1.3 5.3 1.3 7.3 0 1.8-1.1 2.7-3.8 2.1-6.3h-4c.1.6.1.9.1 1.3zM95 93.3c.1-1 .7-1.4 1.6-1.5 1 0 1.7.4 1.8 1.4.1.9 0 1.9 0 2.9H95c0-.9-.1-1.8 0-2.8zm-11.5 12.8c-.9.2-1.6-.1-2.2-.7-.2-.2-.2-.5-.2-.8v-5.7-5.5c0-.9.4-1.4 1.4-1.5 1-.1 1.7.3 1.9 1.1.1.4.1.8.1 1.3v10.3c-.1.6-.2 1.3-1 1.5zm9.9-39c-.7.6-1.3 1.1-1.9 1.5-1.1.8-2.4 1.3-3.8 1.2-1.5-.2-2.4-1-2.6-2.5-.1-.5-.1-1-.1-1.5V48c0-.2 0-.4.1-.7h4.5v17.3c.1 1.2.8 1.6 1.8 1.2 1.5-.6 2-1.3 2-2.9V48.4v-1.1h4.5v22.2h-4.5v-2.4zm-17.7 2.8c-1.2.1-2.4 0-3.6-.3-2.5-.6-4.1-2.7-4.1-5.3-.1-2.1 0-4.2 0-6.2v-5.6c0-3.1 1.5-5 4.5-5.7 1.7-.4 3.3-.4 5 .2 2.3.9 3.7 2.8 3.8 5.3v11.3c-.1 3.7-1.9 5.9-5.6 6.3zm.9-17.6c0-1.3-.7-1.9-2-1.9s-1.9.6-1.9 1.9V64c0 1.4.6 2.1 1.9 2.1 1.3 0 1.9-.7 2-2.1v-5.9-5.8zM61.9 56c-.2.5-.3 1.1-.3 1.7v11.7h-5.2v-1-10.1c0-.6-.1-1.2-.3-1.8-1.8-5.5-3.6-10.9-5.5-16.3-.1-.3-.2-.6-.3-1 1.3 0 2.6.1 3.8 0 1-.1 1.4.3 1.7 1.3.8 3.4 1.8 6.7 2.7 10 .1.3.2.5.4 1.1.2-.4.3-.6.3-.8 1-3.6 1.9-7.1 2.8-10.7.1-.6.4-.8 1-.8h4.4c-.3 1-.6 1.9-.9 2.8-1.4 4.5-3 9.2-4.6 13.9z" id="XMLID_109_"/><g class="st5" id="XMLID_24_"><path class="st4" d="M55.9 86.7c1.1 0 2.3-.1 3.4-.1h1.1v-1h-1.1c-1.1 0-2.3.1-3.4.1 0 1.2-.1 2.3-.1 3.5v1c0-1.2.1-2.3.1-3.5z" id="XMLID_108_"/><path class="st4" d="M54.2 40.1c1-.1 1.4.3 1.7 1.3.8 3.4 1.8 6.7 2.7 10 .1.3.2.5.4 1.1.2-.4.3-.6.3-.8 1-3.6 1.9-7.1 2.8-10.7.1-.6.4-.8 1-.8h4.1c.1-.3.2-.7.3-1h-4.4c-.6 0-.8.2-1 .8-.9 3.6-1.9 7.2-2.8 10.7-.1.2-.2.4-.3.8-.2-.5-.3-.8-.4-1.1-.9-3.3-1.9-6.7-2.7-10-.3-1-.7-1.4-1.7-1.3-1.2.1-2.5 0-3.8 0 .1.4.2.7.3 1 1.2.1 2.4.1 3.5 0z" id="XMLID_107_"/><path class="st4" d="M68 59.1v0z" id="XMLID_106_"/><path class="st4" d="M35.3 90.9c.3-7.3 6.7-13.3 14-13.4 8.7-.1 17.4 0 26.1 0h25.2c7.6 0 13.8 4.9 14.6 12.4.3 2.5.4 5.1.4 7.6 0-2.9-.1-5.8-.4-8.6-.8-7.5-7.1-12.4-14.6-12.4H75.4c-8.7 0-17.4-.1-26.1 0-7.3.1-13.6 6.2-14 13.4-.1 2.5-.2 5-.1 7.6-.1-2.2 0-4.4.1-6.6z" id="XMLID_105_"/><path class="st4" d="M72.7 65c0 1.4.6 2.1 1.9 2.1 1.3 0 1.9-.7 2-2.1v-5.9-.6V64c0 1.3-.7 2-2 2.1-1.3 0-1.9-.6-1.9-2.1V53.3 65z" id="XMLID_104_"/><path class="st4" d="M89.5 49.2v16.2c.1 1.2.8 1.6 1.8 1.2 1.5-.6 2-1.3 2-2.9v-1c0 1.6-.5 2.3-2 2.9-1.1.4-1.8 0-1.8-1.2v-.9-15.3 1z" id="XMLID_103_"/><path class="st4" d="M97.9 47.2h-4.5v1h4.5v-1z" id="XMLID_102_"/><path class="st4" d="M51.2 86.6v-1h-4.7v1h4.7z" id="XMLID_101_"/><path class="st4" d="M85 48.1h4.5v-1H85c0 .3-.1.5-.1.7v1c0-.1.1-.4.1-.7z" id="XMLID_100_"/><path class="st4" d="M68 53.5c0-3.1 1.5-5 4.5-5.7 1.7-.4 3.3-.4 5 .2 2.3.9 3.7 2.8 3.8 5.3v-1c0-2.5-1.4-4.4-3.8-5.3-1.6-.6-3.3-.6-5-.2-3 .7-4.5 2.6-4.5 5.7v1z" id="XMLID_99_"/><path class="st4" d="M56.5 69.4v-5.2 5.2z" id="XMLID_98_"/><path class="st4" d="M81 110c0-.4.1-.8.1-1.3.3.2.4.4.6.6 1.4 1.1 3 1.4 4.7.8 1.6-.6 2-2 2.2-3.6v-1-1 1c-.1 1.5-.5 3-2.2 3.6-1.7.6-3.3.3-4.7-.8-.2-.1-.4-.3-.6-.6 0 .5-.1.9-.1 1.3h-4v1h4z" id="XMLID_97_"/><path class="st4" d="M95 99.5v1h7.5v-4.1 3.1H95z" id="XMLID_96_"/><path class="st4" d="M84.4 94.3c0-.4 0-.8-.1-1.3-.2-.9-.9-1.3-1.9-1.1-1 .1-1.4.6-1.4 1.5v1c0-.9.4-1.4 1.4-1.5 1-.1 1.7.3 1.9 1.1.1.4.1.8.1 1.3v-1z" id="XMLID_95_"/><path class="st4" d="M96.6 92.9c1 0 1.7.4 1.8 1.4v-1c-.1-1-.8-1.4-1.8-1.4s-1.5.5-1.6 1.5c-.1.7 0 1.4 0 2.1v-1.1c.1-1 .7-1.5 1.6-1.5z" id="XMLID_31_"/><path class="st4" d="M90.7 104.6c0 2 .6 3.8 2.3 5 1.9 1.3 5.3 1.3 7.3 0 1.5-1 2.4-3.2 2.3-5.4-.1 1.8-1 3.5-2.3 4.4-2 1.3-5.5 1.3-7.3 0-1.7-1.2-2.3-3-2.3-5v-4.2 5.2z" id="XMLID_30_"/><path class="st4" d="M62.3 106.8c0 .5.1 1 .2 1.4.3 1.5 1.3 2.4 2.8 2.2 1.1-.2 2.1-.7 3.1-1.2.5-.2.9-.7 1.5-1.2v-1c-.6.5-1 1-1.5 1.2-1 .5-2 1-3.1 1.2-1.5.2-2.5-.7-2.8-2.2-.1-.5-.2-1-.2-1.4V90.5v16.3z" id="XMLID_29_"/><path class="st4" d="M51.2 110h4.5v-1h-4.5v1z" id="XMLID_28_"/><path class="st4" d="M69.8 96.7V96.7z" id="XMLID_27_"/><path class="st4" d="M69.9 110h3.9v-1h-3.9v1z" id="XMLID_26_"/><path class="st4" d="M66.4 89.9v0z" id="XMLID_25_"/></g><g class="st5" id="XMLID_2_"><path class="st6" d="M69.8 88.9v1h4v-1h-4z" id="XMLID_23_"/><path class="st6" d="M68.6 105.3c-.5.2-1.2.5-1.7.3-.3-.1-.5-1-.5-1.5v-7 8c0 .5.2 1.4.5 1.5.5.2 1.2 0 1.7-.3.9-.4 1.3-1.1 1.2-2.2v-.9c.1 1-.3 1.7-1.2 2.1z" id="XMLID_22_"/><path class="st6" d="M56.5 70.4h5.2v-1h-5.2v1z" id="XMLID_21_"/><path class="st6" d="M46.5 81.7v1h13.9v-1H46.5z" id="XMLID_20_"/><path class="st6" d="M88.6 97.5c0-1.8 0-3.6-.2-5.3-.4-3.3-3.6-4.6-6.3-2.7-.3.2-.6.5-1.1.9v1c.5-.4.8-.7 1.1-.9 2.7-2 6-.6 6.3 2.7.2 1.8.1 3.5.2 5.3v-1z" id="XMLID_19_"/><path class="st6" d="M81 81.6h-4.1v1H81v-1z" id="XMLID_18_"/><path class="st6" d="M69.8 89.9v0z" id="XMLID_17_"/><path class="st6" d="M81.1 105.6c0 .3 0 .7.2.8.6.6 1.4.9 2.2.7.8-.2.9-1 .9-1.7v-.5-1 .4c-.1.7-.1 1.4-.9 1.7-.9.2-1.6-.1-2.2-.7-.2-.2-.2-.5-.2-.8v-5.6.9c-.1 2-.1 3.9 0 5.8z" id="XMLID_16_"/><path class="st6" d="M61.9 56c-.2.5-.3 1.1-.3 1.7v1c0-.6.1-1.1.3-1.7l4.8-14.1c.3-.9.6-1.7.9-2.8h-.3l-.6 1.8L61.9 56z" id="XMLID_15_"/><path class="st6" d="M66.4 89.9v-1h-4v1h4z" id="XMLID_14_"/><path class="st6" d="M68 58.1v0z" id="XMLID_7_"/><path class="st6" d="M72.2 70.6c1.1.3 2.4.4 3.6.3 3.7-.4 5.5-2.6 5.5-6.3v-1c0 3.7-1.8 5.9-5.5 6.3-1.2.1-2.4 0-3.6-.3-2.5-.6-4.1-2.7-4.1-5.3v-2.8 3.8c0 2.6 1.6 4.7 4.1 5.3z" id="XMLID_3_"/><path class="st6" d="M76.6 52.3c0-1.3-.7-1.9-2-1.9s-1.9.6-1.9 1.9v1c0-1.3.6-1.9 1.9-1.9 1.3 0 2 .6 2 1.9V52.3z" id="XMLID_87_"/><path class="st6" d="M56.2 57.5c.2.6.3 1.2.3 1.8v-1c0-.6-.1-1.2-.3-1.8-1.8-5.5-3.6-10.9-5.5-16.3h-.3c.1.5.2.8.3 1 1.8 5.4 3.7 10.9 5.5 16.3z" id="XMLID_88_"/><path class="st6" d="M114.9 105.8c-.8 6.9-7.3 11.7-14.6 11.7H59.5c-3.8 0-7.5.1-11.3-.1-6.8-.5-12.7-6.4-12.9-13.2-.1-2.2-.1-4.4-.1-6.6 0 2.5 0 5.1.1 7.6.3 6.8 6.2 12.8 12.9 13.2 3.8.2 7.5.1 11.3.1h40.8c7.3 0 13.8-4.8 14.6-11.7.4-3 .5-6.1.5-9.2 0 2.7-.1 5.5-.5 8.2z" id="XMLID_89_"/><path class="st6" d="M98.4 95v1.3H95v-.8 1.8h3.4c0-.8.1-1.6 0-2.3z" id="XMLID_90_"/><path class="st6" d="M102.5 92.8c-.1-1.5-.8-2.7-2.1-3.5C98.3 88 96 88 93.8 89c-2.1 1-3.1 2.8-3.1 5.1v1c0-2.3 1-4.1 3.1-5.1 2.2-1 4.4-1 6.6.2 1.3.8 2 2.1 2.1 3.5.1.8.1 1.7.1 2.5 0-1.1 0-2.2-.1-3.4z" id="XMLID_91_"/><path class="st6" d="M85.1 68.2c.3 1.5 1.2 2.4 2.6 2.5 1.4.1 2.7-.4 3.8-1.2.6-.4 1.2-.9 1.9-1.5v-1c-.7.6-1.3 1.1-1.9 1.5-1.1.8-2.4 1.3-3.8 1.2-1.5-.2-2.4-1-2.6-2.5-.1-.5-.1-1-.1-1.5V48.9v17.8c-.1.5 0 1 .1 1.5z" id="XMLID_92_"/><path class="st6" d="M93.4 69.4v1h4.5v-1h-4.5z" id="XMLID_93_"/><path class="st6" d="M102.5 102.4h-4v1.2c0 .4 0 .8-.1 1.2-.2 1-.7 1.4-1.7 1.4-.9 0-1.6-.4-1.6-1.4v-1.9 2.9c0 .9.7 1.3 1.6 1.4 1 0 1.5-.4 1.7-1.4.1-.4.1-.8.1-1.2v-1.2h4c.1.3.1.6.1.9.1-.6 0-1.3-.1-1.9z" id="XMLID_94_"/></g></svg>